<?xml version="1.0" standalone="no"?><!DOCTYPE svg PUBLIC "-//W3C//DTD SVG 1.1//EN" "http://www.w3.org/Graphics/SVG/1.1/DTD/svg11.dtd"><svg t="1572951259068" class="icon" viewBox="0 0 1024 1024" version="1.1" xmlns="http://www.w3.org/2000/svg" p-id="1442" xmlns:xlink="http://www.w3.org/1999/xlink" width="200" height="200"><defs><style type="text/css"></style></defs><path d="M938.666667 256v-170.666667h-170.666667v426.666667c-1.755429 72.899048-26.672762 133.315048-74.654476 181.345524-48.030476 47.981714-108.446476 72.899048-181.345524 74.654476-72.899048-1.755429-133.315048-26.672762-181.345524-74.654476-47.981714-48.030476-72.899048-108.446476-74.654476-181.345524V85.333333h-170.666667v170.666667h170.666667V341.333333h-170.666667v170.666667c2.681905 120.929524 44.227048 221.574095 124.684191 301.982476 80.457143 80.457143 181.101714 122.002286 301.982476 124.684191 120.929524-2.681905 221.574095-44.227048 301.982476-124.684191 80.457143-80.457143 122.002286-181.101714 124.684191-301.982476V341.333333h-170.666667V256h170.666667zM682.666667 512V0h341.333333v512c-3.559619 144.871619-53.540571 265.557333-149.991619 362.008381C777.557333 970.459429 656.822857 1020.440381 512 1024c-144.871619-3.559619-265.557333-53.540571-362.008381-149.991619C53.540571 777.557333 3.559619 656.822857 0 512V0h341.333333v512c0.877714 47.981714 17.554286 88.259048 49.980953 120.685714 32.475429 32.426667 72.655238 49.103238 120.685714 49.980953 47.981714-0.877714 88.259048-17.554286 120.685714-49.980953 32.426667-32.475429 49.103238-72.655238 49.980953-120.685714z" p-id="1443" fill="#909399"></path></svg>