<?xml version="1.0" standalone="no"?><!DOCTYPE svg PUBLIC "-//W3C//DTD SVG 1.1//EN" "http://www.w3.org/Graphics/SVG/1.1/DTD/svg11.dtd"><svg t="1572951271799" class="icon" viewBox="0 0 1024 1024" version="1.1" xmlns="http://www.w3.org/2000/svg" p-id="1752" xmlns:xlink="http://www.w3.org/1999/xlink" width="200" height="200"><defs><style type="text/css"></style></defs><path d="M847.996719 292.577143L658.288571 102.868995v189.708148H847.996719z m29.70971 73.139286H585.139286V73.149286H146.293571v877.711428h731.412858V365.716429zM109.713929 0.01h548.574642l292.567143 292.567143v694.853214q0 15.999844-10.279899 26.279743-10.2899 10.2899-26.289744 10.2899H109.713929q-15.999844 0-26.279744-10.2899-10.2799-10.2799-10.279899-26.279743V36.579643q0-15.999844 10.279899-26.289743T109.713929 0z m363.42645 665.133504L679.998359 458.295524l52.569487 51.419498-259.427467 259.427467-180.568236-181.708226L344.001641 536.004766l129.138738 129.138738z" p-id="1753" fill="#909399"></path></svg>