<?xml version="1.0" standalone="no"?><!DOCTYPE svg PUBLIC "-//W3C//DTD SVG 1.1//EN" "http://www.w3.org/Graphics/SVG/1.1/DTD/svg11.dtd"><svg t="1572951249004" class="icon" viewBox="0 0 1024 1024" version="1.1" xmlns="http://www.w3.org/2000/svg" p-id="1287" data-spm-anchor-id="a313x.7781069.0.i9" xmlns:xlink="http://www.w3.org/1999/xlink" width="200" height="200"><defs><style type="text/css"></style></defs><path d="M977.16313 629.670957c10.150957 11.931826 18.788174 24.397913 25.911653 37.39826 13.935304 25.421913 20.925217 52.535652 20.925217 81.252174-4.096 81.207652-54.583652 147.055304-151.373913 197.542957-96.834783 50.44313-217.043478 76.488348-360.626087 78.135652-143.582609-1.647304-263.791304-27.692522-360.626087-78.135652C54.583652 895.332174 4.096 829.529043 0 748.321391c0-28.716522 7.168-55.830261 21.548522-81.252174 7.212522-12.777739 15.805217-25.021217 25.822608-36.730434C17.986783 595.389217 2.226087 555.942957 0 512c0-28.716522 7.168-55.785739 21.548522-81.252174 7.212522-12.733217 15.805217-25.021217 25.822608-36.730435C17.986783 359.067826 2.226087 319.666087 0 275.678609 4.096 194.470957 54.583652 128.667826 151.373913 78.135652 248.208696 27.692522 368.417391 1.647304 512 0c143.582609 1.647304 263.791304 27.692522 360.626087 78.135652 96.790261 50.487652 147.277913 116.335304 151.373913 197.542957-2.226087 43.675826-17.808696 82.899478-46.83687 117.670956 10.150957 11.931826 18.788174 24.397913 25.911653 37.398261 13.935304 25.466435 20.925217 52.535652 20.925217 81.252174-2.226087 43.631304-17.808696 82.899478-46.83687 117.670957z m-59.213913 52.802782a435.422609 435.422609 0 0 1-45.32313 27.069218c-96.834783 50.44313-217.043478 76.488348-360.626087 78.135652-143.582609-1.647304-263.791304-27.692522-360.626087-78.135652a435.422609 435.422609 0 0 1-45.32313-27.069218c-17.497043 20.836174-26.624 42.74087-27.291826 65.847652 3.294609 52.535652 45.32313 98.03687 126.174608 136.592696 80.806957 38.555826 183.162435 58.679652 307.066435 60.326956 123.904-1.647304 226.259478-21.77113 307.066435-60.326956 80.851478-38.555826 122.88-84.101565 126.174608-136.592696-0.667826-23.062261-9.794783-45.011478-27.291826-65.847652zM106.050783 446.152348c-17.497043 20.836174-26.624 42.785391-27.291826 65.847652 3.294609 52.535652 45.32313 98.03687 126.174608 136.637217 80.806957 38.555826 183.162435 58.63513 307.066435 60.282435 123.904-1.647304 226.259478-21.726609 307.066435-60.282435 80.851478-38.600348 122.88-84.146087 126.174608-136.637217-0.667826-23.062261-9.794783-44.966957-27.291826-65.847652a435.422609 435.422609 0 0 1-45.32313 27.069217c-96.834783 50.487652-217.043478 76.53287-360.626087 78.180174-143.582609-1.647304-263.791304-27.692522-360.626087-78.180174a435.422609 435.422609 0 0 1-45.32313-27.069217z m405.949217 26.445913c123.904-1.602783 226.259478-21.726609 307.066435-60.282435 80.851478-38.555826 122.88-84.146087 126.174608-136.637217-3.294609-52.535652-45.32313-98.03687-126.174608-136.592696-80.806957-38.555826-183.162435-58.679652-307.066435-60.326956-123.904 1.647304-226.259478 21.77113-307.066435 60.326956-80.851478 38.555826-122.88 84.101565-126.174608 136.592696 3.294609 52.535652 45.32313 98.081391 126.174608 136.637217 80.806957 38.555826 183.162435 58.679652 307.066435 60.282435z" p-id="1288" fill="#909399"></path></svg>