<?xml version="1.0" standalone="no"?><!DOCTYPE svg PUBLIC "-//W3C//DTD SVG 1.1//EN" "http://www.w3.org/Graphics/SVG/1.1/DTD/svg11.dtd"><svg t="1572951235490" class="icon" viewBox="0 0 1024 1024" version="1.1" xmlns="http://www.w3.org/2000/svg" p-id="1132" data-spm-anchor-id="a313x.7781069.0.i7" xmlns:xlink="http://www.w3.org/1999/xlink" width="200" height="200"><defs><style type="text/css"></style></defs><path d="M138.666667 950.869333h746.666666a73.130667 73.130667 0 0 0-22.186666-51.456c-13.994667-13.696-31.488-20.906667-52.48-21.717333h-597.333334c-20.992 0.768-38.485333 8.021333-52.48 21.76a73.130667 73.130667 0 0 0-22.186666 51.413333zM512 512c63.786667-1.536 116.650667-22.869333 158.677333-64 41.984-41.130667 63.786667-92.970667 65.322667-155.434667-1.536-62.464-23.338667-114.261333-65.322667-155.434666-42.026667-41.130667-94.890667-62.464-158.677333-64-63.786667 1.536-116.650667 22.869333-158.677333 64-41.984 41.173333-63.786667 92.970667-65.322667 155.434666 1.536 62.464 23.338667 114.304 65.322667 155.434667 42.026667 41.130667 94.890667 62.464 158.677333 64z m-37.333333 70.314667c-68.309333-8.661333-126.293333-36.266667-173.824-82.901334C244.821333 444.586667 215.68 375.637333 213.333333 292.565333c2.346667-83.029333 31.488-151.978667 87.466667-206.848C356.864 30.848 427.264 2.304 512 0c84.778667 2.304 155.178667 30.848 211.2 85.717333 55.978667 54.869333 85.12 123.818667 87.466667 206.848-2.346667 83.072-31.488 152.021333-87.466667 206.848-47.616 46.592-105.557333 74.24-173.866667 82.901334v222.293333H810.666667c41.984 0.725333 77.226667 15.018667 105.6 42.837333 28.373333 27.776 42.965333 62.293333 43.733333 103.424V1024H64v-73.130667c0.768-41.173333 15.36-75.648 43.733333-103.424 28.416-27.818667 63.573333-42.112 105.6-42.88h261.333334v-222.250666z" p-id="1133" fill="#909399"></path></svg>