<?xml version="1.0" standalone="no"?><!DOCTYPE svg PUBLIC "-//W3C//DTD SVG 1.1//EN" "http://www.w3.org/Graphics/SVG/1.1/DTD/svg11.dtd"><svg t="1572951287598" class="icon" viewBox="0 0 1024 1024" version="1.1" xmlns="http://www.w3.org/2000/svg" p-id="2229" xmlns:xlink="http://www.w3.org/1999/xlink" width="200" height="200"><defs><style type="text/css"></style></defs><path d="M806 320L640 154v166h166z m26 64H576V128H192v768h640V384zM160 64h480l256 256v608q0 14-9 23t-23 9H160q-14 0-23-9t-9-23V96q0-14 9-23t23-9z m309 546l-91-90 46-46 90 91 91-91 45 46-90 90 90 91-45 45-91-90-90 90-46-45z" p-id="2230" fill="#909399"></path></svg>