<?xml version="1.0" standalone="no"?><!DOCTYPE svg PUBLIC "-//W3C//DTD SVG 1.1//EN" "http://www.w3.org/Graphics/SVG/1.1/DTD/svg11.dtd"><svg t="1572951209757" class="icon" viewBox="0 0 1068 1024" version="1.1" xmlns="http://www.w3.org/2000/svg" p-id="824" xmlns:xlink="http://www.w3.org/1999/xlink" width="208.59375" height="200"><defs><style type="text/css"></style></defs><path d="M76.590948 393.812765v551.364582h915.839498V393.812765H76.590948z m-38.152559-78.798168h992.144616a36.505366 36.505366 0 0 1 27.423543 11.129685c7.122998 7.390111 10.729016 16.828083 10.729016 28.313918v630.073712c0 11.485835-3.561499 20.923807-10.729016 28.313918a36.505366 36.505366 0 0 1-27.423543 11.085166H38.438389a36.505366 36.505366 0 0 1-27.423543-11.085166 38.998415 38.998415 0 0 1-10.729016-28.313918V354.4582c0-11.485835 3.561499-20.923807 10.729016-28.313918a36.505366 36.505366 0 0 1 27.423543-11.129685z m76.305118-157.507299H954.322405v78.798168H114.698989v-78.798168zM229.245704 0h610.529986v78.798168H229.245704V0z" fill="#909399" p-id="825"></path></svg>