<?xml version="1.0" standalone="no"?><!DOCTYPE svg PUBLIC "-//W3C//DTD SVG 1.1//EN" "http://www.w3.org/Graphics/SVG/1.1/DTD/svg11.dtd"><svg t="1572951293635" class="icon" viewBox="0 0 1024 1024" version="1.1" xmlns="http://www.w3.org/2000/svg" p-id="2384" xmlns:xlink="http://www.w3.org/1999/xlink" width="200" height="200"><defs><style type="text/css"></style></defs><path d="M347.648 995.328c-14.336 0-29.184-3.584-41.984-11.264L206.336 926.72c-18.432-10.24-31.744-27.136-37.888-47.104-6.144-19.968-5.12-41.472 4.096-60.416 4.608-9.728 3.072-21.504-3.584-29.696-28.672-35.84-51.712-75.776-68.096-118.272-3.584-9.728-13.312-16.896-23.552-17.92-20.992-2.048-40.448-11.264-54.272-27.136-13.824-15.36-22.016-35.328-22.016-56.32V454.656c0-20.992 7.68-40.96 22.016-56.32s33.28-25.088 54.272-26.624c10.752-1.024 19.968-8.192 24.064-17.92C117.76 311.296 140.8 271.36 169.472 235.52c6.656-8.192 8.192-19.968 3.584-29.696-8.704-18.944-10.24-40.448-4.096-60.416 6.144-19.968 19.968-36.864 37.888-47.104L305.664 39.936c18.432-10.24 39.424-13.824 59.904-9.216s38.4 16.384 50.688 33.792c6.144 8.704 16.896 13.312 27.648 11.776 22.528-3.584 45.568-5.12 68.096-5.12 23.04 0 45.568 1.536 68.096 5.12 10.752 1.536 20.992-3.072 27.648-11.776 12.288-17.408 30.208-29.184 50.688-33.792 20.48-4.608 41.984-1.024 59.904 9.216L817.664 97.28c18.432 10.24 31.744 27.136 37.888 47.104 6.144 19.968 5.12 41.472-3.584 60.416-4.608 9.728-3.072 21.504 3.584 29.696 28.672 35.84 51.712 75.776 68.096 118.272 3.584 9.728 13.312 16.896 24.064 17.92 20.992 2.048 40.448 11.264 54.272 26.624 14.336 15.36 22.016 35.328 22.016 56.32v115.2c0 20.992-7.68 40.96-22.016 56.32s-33.28 25.088-54.272 26.624c-10.752 1.024-19.968 8.192-24.064 17.92-16.384 42.496-39.424 82.432-68.096 118.272-6.656 8.192-8.192 19.968-3.584 29.696 8.704 18.944 10.24 40.448 3.584 60.416-6.144 19.968-19.968 36.864-37.888 47.104l-99.84 57.344c-18.432 10.24-39.424 13.824-59.904 9.216s-38.4-16.384-50.688-33.792c-6.144-8.704-16.896-13.312-27.648-11.776-22.528 3.584-45.568 5.12-68.096 5.12s-45.568-1.536-68.096-5.12c-10.24-1.536-21.504 3.072-27.648 11.776-12.288 17.408-30.208 29.184-50.688 33.792-5.12 3.072-11.264 3.584-17.408 3.584z m-266.752-397.312c31.744 3.072 59.392 23.552 70.656 53.248 14.336 37.376 34.304 72.192 59.904 103.424 19.968 24.576 24.064 58.88 10.752 87.552-6.144 13.824-1.024 29.184 11.776 36.864l99.84 57.344c12.8 7.168 29.184 3.584 37.376-8.192 18.432-26.112 49.664-39.424 81.408-34.816 39.424 6.144 80.384 6.144 119.296 0 31.744-5.12 62.976 8.192 81.408 34.816 8.704 12.288 24.576 15.872 37.376 8.192l99.84-57.344c12.8-7.168 17.92-23.04 11.776-36.352-13.312-28.672-9.216-62.976 10.752-87.552 25.088-31.232 45.568-66.048 59.904-103.424 11.264-29.184 38.912-50.176 70.656-53.248 14.848-1.024 26.112-13.312 26.112-28.16V454.656c0-14.848-11.264-27.136-26.112-28.16-31.232-3.072-59.392-23.552-70.656-53.248-14.336-37.376-34.304-72.192-59.904-103.424-19.968-24.576-24.064-58.88-10.752-87.552 6.144-13.824 1.024-29.184-11.776-36.864l-99.84-57.344c-12.8-7.168-29.184-4.096-37.376 8.192-15.872 22.528-41.472 35.84-68.096 35.84-4.096 0-8.704-0.512-12.8-1.024-39.424-6.144-80.384-6.144-119.296 0-31.744 5.12-62.976-8.192-81.408-34.816-8.704-12.288-24.576-15.872-37.376-8.192L233.984 145.408c-12.8 7.168-17.92 23.04-11.776 36.352 13.312 28.672 9.216 62.976-10.752 87.552-25.088 31.232-45.568 66.048-59.904 103.424-11.264 29.184-38.912 50.176-70.656 53.248-14.848 1.536-25.6 13.312-25.6 28.16v115.2c0 14.848 11.264 27.136 25.6 28.672z" p-id="2385" fill="#909399"></path><path d="M512 701.44c-104.448 0-188.928-84.992-188.928-188.928s84.48-189.44 188.928-189.44 188.928 84.992 188.928 188.928c0 26.624-5.632 52.224-16.384 76.288-6.144 13.824-22.528 20.48-36.352 13.824-13.824-6.144-20.48-22.528-13.824-36.352 7.68-16.896 11.264-35.328 11.264-54.272 0-73.728-59.904-133.632-133.632-133.632S378.368 438.272 378.368 512s59.904 133.632 133.632 133.632c19.456 0 37.888-4.096 55.296-11.776 13.824-6.144 30.208 0 36.864 13.824 6.144 13.824 0 30.208-13.824 36.864-24.576 11.264-51.2 16.896-78.336 16.896z" p-id="2386" fill="#909399"></path></svg>