<?xml version="1.0" standalone="no"?><!DOCTYPE svg PUBLIC "-//W3C//DTD SVG 1.1//EN" "http://www.w3.org/Graphics/SVG/1.1/DTD/svg11.dtd"><svg t="1572951265279" class="icon" viewBox="0 0 1024 1024" version="1.1" xmlns="http://www.w3.org/2000/svg" p-id="1597" xmlns:xlink="http://www.w3.org/1999/xlink" width="200" height="200"><defs><style type="text/css"></style></defs><path d="M420.700892 987.740354q-22.859777-1.149989-38.299626-16.579838-15.429849-15.429849-15.42985-38.299626 0-22.869777 15.42985-38.299626 15.439849-15.439849 38.299626-15.439849 22.869777 0 38.299626 15.439849 15.429849 15.429849 15.429849 38.299626 0 22.869777-15.429849 38.299626-15.429849 15.429849-38.299626 16.579838z m365.826427 0q-22.859777-1.149989-38.299626-16.579838-15.429849-15.429849-15.429849-38.299626 0-22.869777 15.429849-38.299626 15.439849-15.439849 38.299626-15.439849 22.869777 0 38.289626 15.439849 15.429849 15.429849 15.429849 38.299626 0 22.869777-15.429849 38.299626-15.429849 15.429849-38.299626 16.579838zM36.584643 73.179285q-15.999844 0-26.289744-10.289899T0.005 36.589643q0-16.009844 10.289899-26.299743T36.584643 0H219.502856q13.719866 0 23.439772 8.009922t11.999882 21.709788l38.869621 189.778146h693.923223q17.149833 0 28.009727 13.719866 10.859894 13.719866 7.429927 30.859699L913.42608 776.23242q-2.289978 12.579877-11.999883 20.579799-9.709905 7.999922-23.429771 7.999922H365.841427q-13.719866 0-23.439771-7.999922-9.709905-7.999922-11.999883-21.719788L189.783147 73.169285H36.594643z m358.966494 658.48357h452.715579l93.739085-438.995713H307.521997l88.02914 438.995713zM727.0779 219.507856L621.908927 93.749084 516.729954 219.507856h210.347946zM565.889474 46.879542q21.719788-25.149754 56.019453-25.149754 34.299665 0 56.019453 25.149754l204.628001 245.7876h-521.294909L565.889474 46.879542z" p-id="1598" data-spm-anchor-id="a313x.7781069.0.i14" class="selected" fill="#909399"></path></svg>