<?xml version="1.0" standalone="no"?><!DOCTYPE svg PUBLIC "-//W3C//DTD SVG 1.1//EN" "http://www.w3.org/Graphics/SVG/1.1/DTD/svg11.dtd"><svg t="1572951227989" class="icon" viewBox="0 0 1068 1024" version="1.1" xmlns="http://www.w3.org/2000/svg" p-id="977" xmlns:xlink="http://www.w3.org/1999/xlink" width="208.59375" height="200"><defs><style type="text/css"></style></defs><path d="M76.310261 393.839304h915.901217v-78.803478c-0.801391-22.127304-8.370087-40.559304-22.706087-55.340522a75.909565 75.909565 0 0 0-53.648695-23.373913H152.709565a75.909565 75.909565 0 0 0-53.693217 23.373913c-14.291478 14.781217-21.815652 33.213217-22.661565 55.385044v78.803478z m0 78.803479v393.839304c0.801391 22.127304 8.370087 40.603826 22.706087 55.385043 14.246957 14.736696 32.144696 22.528 53.648695 23.373913H915.812174a75.909565 75.909565 0 0 0 53.693217-23.373913c14.291478-14.781217 21.815652-33.257739 22.661566-55.385043v-393.883826H76.310261z m228.975304-315.12487V78.803478c0.801391-22.127304 8.370087-40.603826 22.706087-55.385043A75.909565 75.909565 0 0 1 381.551304 0h305.330087c21.459478 0.801391 39.312696 8.637217 53.648696 23.373913 14.291478 14.781217 21.860174 33.257739 22.661565 55.385044v78.803478h152.620522c42.963478 0.801391 78.937043 16.161391 107.965217 46.124522 28.983652 29.96313 43.898435 67.094261 44.699826 111.393391v551.401739c-0.801391 44.29913-15.716174 81.430261-44.699826 111.34887-29.028174 29.96313-65.001739 45.367652-107.965217 46.169043H152.709565c-42.963478-0.801391-78.937043-16.205913-107.965217-46.169043C15.716174 947.912348 0.801391 910.781217 0 866.482087V315.080348c0.801391-44.29913 15.716174-81.474783 44.699826-111.393391 29.028174-29.96313 65.001739-45.32313 107.965217-46.169044h152.620522zM381.595826 78.803478v78.803479h305.330087v-78.803479H381.551304z" p-id="978" fill="#909399"></path></svg>